<?xml version="1.0" encoding="UTF-8"?>
<svg xmlns="http://www.w3.org/2000/svg" viewBox="0 0 4150 4900" width="41.5mm" height="49mm">
 <defs>
  <style type="text/css">
   <![CDATA[
    .fil0 {fill:#34B7FF}
   ]]>
  </style>
 </defs>
 <g id="Слой_x0020_1">
  <path class="fil0" d="M2728 2416.3c-182.14,22.19 -356.63,19.49 -516.98,-6.55 -521.86,-84.78 -874.97,-406.42 -915.67,-949.89 -19.05,-254.31 37.43,-519.16 149.82,-735.95 -1141.36,569.99 -904.18,1976.75 -10.35,2117.83 -459.63,-238.12 -604.73,-918.19 -411.79,-1355.25 -33.83,315.79 82.78,663.37 339.29,893.54 205.54,184.43 502.27,326.06 882.22,326.37 -206.46,424.32 -767.3,458.75 -1179.91,295.62 -260.16,-109.89 -482.34,-331.62 -593.37,-593.71 -394.17,-930.38 359.47,-1917.64 1313.64,-2043.88 1117.04,-147.8 2074.47,686.3 2078.38,1819.55 3.54,1023.99 -755.32,2065.29 -1998.12,2076.01 1363.27,110.53 2248.7,-960.95 2276.28,-2079.81 32.45,-1316.43 -1126.76,-2312.33 -2417.5,-2150.94 -1180.81,147.62 -2071.64,1346.32 -1603.02,2496.44 139.98,343.55 395.19,634.56 755.2,785.67 611.17,256.55 1539.81,73.25 1781.16,-609.01 -44.55,1170.49 -1741.66,1302.65 -2597.47,1449.94 72.18,134.19 165.94,246.64 275.06,340.2 224.87,-126.11 454.63,-230.23 696.34,-281.14 -180.69,98.73 -346.87,242.81 -502.69,419.27 126.63,75.05 265.62,132.15 410.42,174.24l178.92 42.58c73.41,-211.7 125.72,-411.45 120.46,-608.74 69.17,205.62 96.43,423.04 103.93,646 155.74,18.12 311.27,23.03 459.16,18.12 48.39,-282.42 -155.67,-598.98 -303.05,-718.06 656.84,2.91 1391.59,-227.03 1626.52,-876.16 147.62,-407.82 165.6,-870.01 326.3,-978.13 78.52,-68.76 227.41,-53.89 304.81,3.97 -16.75,-113.33 -100.65,-135.42 -143.78,-151 -90.89,-256.27 -364.64,-289.9 -571.87,-94.84 -93.37,90.64 -215.81,247.6 -312.34,327.71zm621.77 -211.86c27.99,0 50.69,-22.71 50.69,-50.71 0,-27.99 -22.7,-50.71 -50.69,-50.71 -28.01,0 -50.71,22.72 -50.71,50.71 0,28 22.7,50.71 50.71,50.71z"/>
 </g>
</svg>


